[img]http://img707.imageshack.us/img707/8237/70c5so.jpg[/img]
[code]
info:
Thx Hive

CM8 Doing It Right The First Time 

Source: Russian DVD9
Otkrytoe.more.Novye.zhertvy.2010.DVD-9
Had English 5.1 Audio on it (again 256kbit)

Video: 720x400 @bitrate 1800 2pass
Audio: English AC3 5.1 @256
Sample: yes included
 
http://www.imdb.com/title/tt0990363/


General
Complete name                    : Detention.2010.R5.XVID.AC3.HQ.Hive-CM8.avi
Format                           : AVI
Format/Info                      : Audio Video Interleave
File size                        : 1.17 GiB
Duration                         : 1h 21mn
Overall bit rate                 : 2 066 Kbps
Writing application              : Nandub v1.0rc2
Writing library                  : Nandub build 1853/release

Video
ID                               : 0
Format                           : MPEG-4 Visual
Format profile                   : Advanced Simple@L5
Format settings, BVOP            : Yes
Format settings, QPel            : Yes
Format settings, GMC             : No warppoints
Format settings, Matrix          : Default (H.263)
Muxing mode                      : Packed bitstream
Codec ID                         : XVID
Codec ID/Hint                    : XviD
Duration                         : 1h 21mn
Bit rate                         : 1 800 Kbps
Width                            : 720 pixels
Height                           : 400 pixels
Display aspect ratio             : 16:9
Frame rate                       : 25.000 fps
Color space                      : YUV
Chroma subsampling               : 4:2:0
Bit depth                        : 8 bits
Scan type                        : Progressive
Bits/(Pixel*Frame)               : 0.250
Stream size                      : 1.02 GiB (87%)
Writing library                  : XviD 1.2.1 (UTC 2008-12-04)

Audio
ID                               : 1
Format                           : AC-3
Format/Info                      : Audio Coding 3
Mode extension                   : CM (complete main)
Codec ID                         : 2000
Duration                         : 1h 21mn
Bit rate mode                    : Constant
Bit rate                         : 256 Kbps
Channel(s)                       : 6 channels
Channel positions                : Front: L C R, Side: L R, LFE
Sampling rate                    : 48.0 KHz
Bit depth                        : 16 bits
Stream size                      : 149 MiB (12%)
Alignment                        : Split accross interleaves
Interleave, duration             : 40 ms (1.00 video frame)
Interleave, preload duration     : 500 ms


Cast:
David Carradine  - Principal Hoskins
Billy Aaron Brown  - Jack
Thomas Calabro - Coach L
Zelda Williams - Sara 
Preston Jones - Paul
Black Thomas - Jackson

Plot:
A group of high school students are sent to after-school Detention 
for unexplained reasons. There, the teenagers find themselves abandoned
and locked in the classroom after their detention teacher leaves, then 
mysteriously disappears. With night slowly approaching, a thunder storm
builds outside. The heavy rain and lightning causes a massive power failure 
throwing the school into total darkness. Then, strange, haunting images 
of Ghosts begin to appear in the school.


Greetz

iNK,LUSi,,MAGNET,CLASSiFiED,KaN1vE,LEGi0N,IMAGiNE,ViSiON,
Rapeseed,MEMORY100,goldadvance,SAFC,Unevano,Pinnz,Wayne,Mr Hive
and all P2P groups 
Great Work Guys 
[/code]
Screens:
[img]http://img51.imageshack.us/img51/6162/dt4.png[/img]
[img]http://img442.imageshack.us/img442/5646/dt3n.png[/img]
[img]http://img4.imageshack.us/img4/9734/dt2.png[/img]
[img]http://img809.imageshack.us/img809/1148/dt1.png[/img]